<?xml version="1.0" ?><svg width="60px" height="60px" viewBox="0 0 60 60" xmlns="http://www.w3.org/2000/svg"><rect fill="#fff" height="60" rx="10" width="60"/><rect fill="#c1f7fd" height="40" rx="6" transform="translate(60 64) rotate(180)" width="40" x="10" y="12"/><path d="M10,47.5a1.5,1.5,0,0,1-1.061-2.561l30-30a1.5,1.5,0,0,1,2.122,2.122l-30,30A1.5,1.5,0,0,1,10,47.5Z" fill="#f2bf80"/><path d="M50,47.5a1.5,1.5,0,0,1-1.061-.439l-30-30a1.5,1.5,0,0,1,2.122-2.122l30,30A1.5,1.5,0,0,1,50,47.5Z" fill="#f2bf80"/><path d="M44,53.5H16A7.508,7.508,0,0,1,8.5,46V18A7.508,7.508,0,0,1,16,10.5H44A7.508,7.508,0,0,1,51.5,18V46A7.508,7.508,0,0,1,44,53.5Zm-28-40A4.505,4.505,0,0,0,11.5,18V46A4.505,4.505,0,0,0,16,50.5H44A4.505,4.505,0,0,0,48.5,46V18A4.505,4.505,0,0,0,44,13.5Z" fill="#7bcdd1"/><path d="M18,20a12,12,0,1,1,22.683,5.448H40.7l-8.913,17.46h-.009a1.985,1.985,0,0,1-3.546,0h-.009l-8.913-17.46h.012A11.934,11.934,0,0,1,18,20Zm12,4a4,4,0,1,0-4-4A4,4,0,0,0,30,24Z" fill="#f2c4bb"/><path d="M30,45.5a3.481,3.481,0,0,1-3.009-1.728,1.659,1.659,0,0,1-.11-.182L17.969,26.13a1.417,1.417,0,0,1-.075-.175A13.332,13.332,0,0,1,16.5,20a13.5,13.5,0,0,1,27,0,13.348,13.348,0,0,1-1.4,5.96,1.345,1.345,0,0,1-.074.17L33.118,43.59a1.436,1.436,0,0,1-.109.182A3.482,3.482,0,0,1,30,45.5Zm-.519-3.415a1.56,1.56,0,0,1,.081.138.484.484,0,0,0,.876,0c.025-.047.051-.092.08-.136l8.758-17.159a1.64,1.64,0,0,1,.071-.161A10.385,10.385,0,0,0,40.5,20a10.5,10.5,0,0,0-21,0,10.379,10.379,0,0,0,1.153,4.766,1.441,1.441,0,0,1,.073.166ZM30,25.5A5.5,5.5,0,1,1,35.5,20,5.506,5.506,0,0,1,30,25.5Zm0-8A2.5,2.5,0,1,0,32.5,20,2.5,2.5,0,0,0,30,17.5Z" fill="#f28080"/><path d="M18,21.5A1.5,1.5,0,0,1,16.5,20,13.515,13.515,0,0,1,30,6.5a1.5,1.5,0,0,1,0,3A10.512,10.512,0,0,0,19.5,20,1.5,1.5,0,0,1,18,21.5Z" fill="#ffafc5"/></svg>