<?xml version="1.0" ?><svg width="60px" height="60px" viewBox="0 0 60 60" xmlns="http://www.w3.org/2000/svg"><rect fill="#fff" height="60" rx="10" width="60"/><path d="M45.469,50.641,51.32,44.79a2.321,2.321,0,0,0,0-3.283L43.113,33.3a2.321,2.321,0,0,0-3.283,0l-3.282,3.282A19.727,19.727,0,0,1,23.417,23.452L26.7,20.17a2.321,2.321,0,0,0,0-3.283L18.493,8.68a2.321,2.321,0,0,0-3.283,0L9.359,14.531a4.672,4.672,0,0,0-.83,5.456A71.979,71.979,0,0,0,40.013,51.471,4.672,4.672,0,0,0,45.469,50.641Z" fill="#c1f7fd"/><path d="M48.037,49.573a1.494,1.494,0,0,1-1.06-.44L35.487,37.644a1.5,1.5,0,0,1,2.121-2.121L49.1,47.012a1.5,1.5,0,0,1-1.061,2.561Z" fill="#bbd9c8"/><path d="M23.417,24.952a1.5,1.5,0,0,1-1.061-.439L10.867,13.023A1.5,1.5,0,1,1,12.988,10.9l11.489,11.49a1.5,1.5,0,0,1-1.06,2.56Z" fill="#bbd9c8"/><path d="M42.186,53.505a6.219,6.219,0,0,1-2.864-.7A73.791,73.791,0,0,1,7.2,20.678,6.152,6.152,0,0,1,8.3,13.47l5.851-5.851a3.826,3.826,0,0,1,5.4,0l8.207,8.207a3.825,3.825,0,0,1,0,5.4l-2.614,2.614a17.932,17.932,0,0,0,11.01,11.01L38.77,32.24a3.825,3.825,0,0,1,5.4,0l8.207,8.207a3.827,3.827,0,0,1,0,5.4L46.529,51.7A6.127,6.127,0,0,1,42.186,53.505ZM16.851,9.5a.818.818,0,0,0-.58.24l-5.852,5.852A3.161,3.161,0,0,0,9.86,19.3,70.839,70.839,0,0,0,40.7,50.14a3.163,3.163,0,0,0,3.7-.559h0l5.852-5.852a.822.822,0,0,0,0-1.161l-8.207-8.207a.824.824,0,0,0-1.162,0l-3.283,3.283a1.5,1.5,0,0,1-1.535.362,21.238,21.238,0,0,1-14.079-14.08,1.5,1.5,0,0,1,.362-1.534l3.283-3.283a.823.823,0,0,0,0-1.162L17.432,9.74A.822.822,0,0,0,16.851,9.5Z" fill="#7bcdd1"/><path d="M8.53,21.488a1.5,1.5,0,0,1-1.333-.81A6.152,6.152,0,0,1,8.3,13.47l5.851-5.851a3.826,3.826,0,0,1,5.4,0,1.5,1.5,0,1,1-2.121,2.122.822.822,0,0,0-1.161,0l-5.852,5.852A3.161,3.161,0,0,0,9.86,19.3a1.5,1.5,0,0,1-.641,2.022A1.483,1.483,0,0,1,8.53,21.488Z" fill="#bec6f4"/></svg>